<svg id="Layer_1" data-name="Layer 1" xmlns="http://www.w3.org/2000/svg" xmlns:xlink="http://www.w3.org/1999/xlink" viewBox="0 0 228.97 70.87"><defs><style>.cls-1{fill:none;}.cls-2{clip-path:url(#clip-path);}.cls-3{fill:#009fe3;}.cls-4{fill:#f39200;}</style><clipPath id="clip-path" transform="translate(0 -0.13)"><rect class="cls-1" y="0.13" width="228.97" height="70.87"/></clipPath></defs><g class="cls-2"><path class="cls-3" d="M29.53,11h.11l2-2.86a79.11,79.11,0,0,0-8.48,4.73A23.12,23.12,0,0,1,29.53,11" transform="translate(0 -0.13)"/><path class="cls-3" d="M55.38,30.5a22.88,22.88,0,0,1,.12,5.41L79.37,1.82A52.86,52.86,0,0,0,69.29.25L53.13,23.33a22.85,22.85,0,0,1,2.25,7.17" transform="translate(0 -0.13)"/><path class="cls-3" d="M51.64,20.81,66.12.14A71.17,71.17,0,0,0,54.31,1L45,14.37a22.86,22.86,0,0,1,6.67,6.44" transform="translate(0 -0.13)"/><path class="cls-3" d="M42.64,13.06,50.58,1.72A81.74,81.74,0,0,0,39.22,5c-1,.35-1.93.72-2.87,1.11L33,10.8a22.8,22.8,0,0,1,9.6,2.26" transform="translate(0 -0.13)"/><path class="cls-3" d="M.82,52.16l9.53-13.6c-.12-.56-.23-1.11-.31-1.68a22.86,22.86,0,0,1,5.59-18.42,55.67,55.67,0,0,0-8.45,8.89h0C1.08,35.46-1.45,44.27.82,52.16" transform="translate(0 -0.13)"/><path class="cls-3" d="M11.32,41.82,2,55.19a22.42,22.42,0,0,0,5.88,7.58l8.89-12.71a22.67,22.67,0,0,1-5.4-8.24" transform="translate(0 -0.13)"/><path class="cls-3" d="M30,56.42l-9,12.92a51.91,51.91,0,0,0,10,1.66L42.58,54.35A23,23,0,0,1,30,56.42" transform="translate(0 -0.13)"/><path class="cls-3" d="M27.08,55.88a23.06,23.06,0,0,1-8.34-4.06L9.94,64.39a34.4,34.4,0,0,0,8.3,4.12Z" transform="translate(0 -0.13)"/><path class="cls-4" d="M13,37.82h0A18.17,18.17,0,0,0,22.12,48L13.45,24.17A18.16,18.16,0,0,0,13,37.82" transform="translate(0 -0.13)"/><path class="cls-4" d="M15.22,21.05,25.48,49.23a18.18,18.18,0,0,0,5.66.58L19.18,17a18,18,0,0,0-4,4.08" transform="translate(0 -0.13)"/><path class="cls-4" d="M23.89,14.42a17.71,17.71,0,0,0-2.34,1.05l12.36,34a18.61,18.61,0,0,0,2.47-.7,18.31,18.31,0,0,0,2.34-1.05l-12.36-34a20.26,20.26,0,0,0-2.47.7" transform="translate(0 -0.13)"/><path class="cls-4" d="M29.13,13.35l12,32.84a17.81,17.81,0,0,0,4-4.08L34.78,13.93a17.83,17.83,0,0,0-5.65-.58" transform="translate(0 -0.13)"/><path class="cls-4" d="M38.15,15.18,46.81,39a18.24,18.24,0,0,0-8.66-23.81" transform="translate(0 -0.13)"/><path class="cls-4" d="M122,13.7V49.37h22.51a5.94,5.94,0,0,0,5.94-5.95V42.23H130.36V35.1h18.93V28H130.36V20.84h20.13V13.7H122Z" transform="translate(0 -0.13)"/><path class="cls-4" d="M211.18,21.25h10.66A7.13,7.13,0,0,0,229,14.12V13.7H211.18a17.84,17.84,0,0,0,0,35.67h8.28A9.51,9.51,0,0,0,229,39.86V32.52a4.76,4.76,0,0,0-4.76-4.76H207.57v4a3.57,3.57,0,0,0,3.57,3.57H219a2.38,2.38,0,0,1,2.38,2.38v1.75A2.38,2.38,0,0,1,219,41.82h-7.8a10.29,10.29,0,0,1,0-20.57" transform="translate(0 -0.13)"/><path class="cls-4" d="M176.4,19l-4.47,16.68L167.46,19a7.14,7.14,0,0,0-6.89-5.29H154.1V49.37h7.13V23.3l6,22.54a4.76,4.76,0,0,0,4.59,3.53H172a4.76,4.76,0,0,0,4.6-3.53l6-22.54V49.37h7.13V13.7h-6.47A7.13,7.13,0,0,0,176.4,19" transform="translate(0 -0.13)"/><path class="cls-4" d="M95.26,34.91l2.5-9.34a4.77,4.77,0,0,1,4.6-3.53h.13l3.45,12.87ZM89.5,24.27l-6.73,25.1h8.62l1.91-7.14h14.6l1.91,7.14h8.62L108.87,13.7h-5.6A14.26,14.26,0,0,0,89.5,24.27" transform="translate(0 -0.13)"/><path class="cls-4" d="M119,68.91c2,0,3.09-.76,3.12-2.21,0-1-.83-1.69-2.47-2.21-1.39-.46-2.08-1-2.08-1.77s.65-1.31,1.86-1.39,1.7.43,1.73,1.21h.78c-.17-1.21-1-1.85-2.6-1.91-1.62.15-2.47.87-2.55,2.17-.06,1.13.89,2,2.86,2.47l.43.13c.84.29,1.26.75,1.26,1.39-.09.92-.74,1.43-2,1.52s-2-.52-2-1.57h-.78A2.22,2.22,0,0,0,119,68.91m8.18-8.15h-.74v8.07h.74Zm5.46,8.07V61.89h0L137,68.83h.91v-8h-.74v7.06h0l-4.41-7.06h-.79v8Zm12.91-8.2q-3.3.13-3.43,4.21c.06,2.66,1.2,4,3.43,4.07a2.65,2.65,0,0,0,2.77-2h-.78a1.85,1.85,0,0,1-2,1.43q-2.57,0-2.65-3.47.09-3.42,2.65-3.51c1.1.06,1.73.5,1.91,1.34h.78c-.18-1.27-1.07-2-2.69-2m11.87,7.55h-4.21V65H157v-.65h-3.86V61.5h4v-.69h-4.76v8h4.94Zm14.25,0h-3.95c.12-.12.32-.31.61-.57,2.14-2.08,3.22-3.62,3.25-4.64-.09-1.24-.85-1.9-2.3-2a2.15,2.15,0,0,0-2.34,2.21h.78a1.48,1.48,0,0,1,1.52-1.56c1,.06,1.5.52,1.56,1.39s-1.37,2.7-3.94,5.07v.74h4.81ZM179.82,65c0,2.22-.59,3.34-1.78,3.34s-1.77-1.12-1.77-3.34.59-3.31,1.77-3.34,1.78,1.14,1.78,3.34m-4.33,0q0,3.9,2.55,3.94T180.6,65q0-4-2.56-4t-2.55,4m13,0c0,2.22-.59,3.34-1.78,3.34S185,67.19,185,65s.59-3.31,1.77-3.34,1.78,1.14,1.78,3.34m-4.34,0c0,2.6.86,3.91,2.56,3.94s2.56-1.31,2.56-3.94-.85-4-2.56-4-2.56,1.36-2.56,4m11.22-3v6.89h.7V61.16h-.7a6,6,0,0,1-1.73,1.21v.69a7.87,7.87,0,0,0,1.73-1.12" transform="translate(0 -0.13)"/></g><rect class="cls-4" x="82.77" y="64.88" width="26.14" height="0.69"/><rect class="cls-4" x="202.82" y="64.88" width="26.15" height="0.69"/></svg>